<svg xmlns="http://www.w3.org/2000/svg" width="800" height="200" viewBox="0 0 800 200" role="img" aria-labelledby="title desc">
<title id="title">Jeremy Kenedy</title>
<desc id="desc">Building the tools and teams behind enterprise applications. Illustrated routes from Portland to 13 major cities around the world.</desc>
<g font-family="system-ui, -apple-system, 'Segoe UI', sans-serif">
<defs><linearGradient id="background" x2="1" y2="1"><stop stop-color="#0c0a09"/><stop offset="1" stop-color="#1c1917"/></linearGradient></defs>
<rect x="1" y="1" width="798" height="198" rx="16" fill="url(#background)" stroke="#303640" />
<rect x="32" y="32" width="24" height="3" rx="1" fill="#a78bfa" stroke="none" />
<text x="68" y="38" font-size="10" fill="#a5afbf" font-weight="600" letter-spacing="1.5">PEOPLE. PLATFORMS. PRODUCTS.</text>
<text x="31" y="82" font-size="40" fill="#f0f3f8" font-weight="700" letter-spacing="-.5">Jeremy Kenedy</text>
<text x="32" y="111" font-size="14" fill="#a5afbf" font-weight="400" >Engineering leader. Architect. Hands-on builder.</text>
<rect x="32" y="130" width="130" height="26" rx="13" fill="#1a1a1a" stroke="#a78bfa" stroke-width=".7"/>
<text x="97.0" y="147" font-size="10" fill="#a78bfa" font-weight="600" text-anchor="middle">TEAM LEADERSHIP</text>
<rect x="172" y="130" width="150" height="26" rx="13" fill="#1a1a1a" stroke="#60a5fa" stroke-width=".7"/>
<text x="247.0" y="147" font-size="10" fill="#60a5fa" font-weight="600" text-anchor="middle">SYSTEM ARCHITECTURE</text>
<rect x="332" y="130" width="114" height="26" rx="13" fill="#1a1a1a" stroke="#4ade80" stroke-width=".7"/>
<text x="389.0" y="147" font-size="10" fill="#4ade80" font-weight="600" text-anchor="middle">OPEN SOURCE</text>
<text x="32" y="173" font-size="9" fill="#a5afbf" font-weight="500" letter-spacing="1.2">PORTLAND, OR  /  BUILDING WITH PURPOSE</text>
<text x="32" y="189" font-size="11" fill="#f0f3f8" font-weight="500" >Building the tools and teams behind enterprise applications.</text>
<g transform="translate(568 34) scale(0.9)">
<style>@keyframes routes{to{stroke-dashoffset:-100}}.route-motion{animation:routes 16s linear infinite}@media(prefers-reduced-motion:reduce){.route-motion{animation:none;stroke-dasharray:none;opacity:.3}}</style>
<circle cx="96" cy="67" r="82" fill="#161b22" stroke="#303640"/>
<ellipse cx="96" cy="67" rx="82" ry="36" fill="none" stroke="#303640" stroke-width=".7"/>
<ellipse cx="96" cy="67" rx="39" ry="82" fill="none" stroke="#303640" stroke-width=".7"/>
<ellipse cx="96" cy="67" rx="64" ry="82" fill="none" stroke="#303640" stroke-width=".7"/>
<defs><clipPath id="globe-surface"><circle cx="96" cy="67" r="82"/></clipPath></defs>
<g clip-path="url(#globe-surface)"><g transform="translate(10.435 -26.119) scale(.8913 1.38983)">
<path d="M22 39L34 25L53 23L62 34L75 33L68 46L54 48L48 59L40 61L34 51L25 49Z" fill="#60a5fa" fill-opacity=".14" stroke="#60a5fa" stroke-opacity=".55" stroke-width=".7"/>
<path d="M49 64L63 71L73 83L67 96L63 109L56 114L52 99L48 88L43 76Z" fill="#60a5fa" fill-opacity=".14" stroke="#60a5fa" stroke-opacity=".55" stroke-width=".7"/>
<path d="M76 19L84 15L90 22L85 30L79 29Z" fill="#60a5fa" fill-opacity=".14" stroke="#60a5fa" stroke-opacity=".55" stroke-width=".7"/>
<path d="M95 34L103 28L112 31L115 41L106 46L98 42L91 45Z" fill="#60a5fa" fill-opacity=".14" stroke="#60a5fa" stroke-opacity=".55" stroke-width=".7"/>
<path d="M94 51L111 49L126 66L119 84L109 103L101 96L99 79L88 63Z" fill="#60a5fa" fill-opacity=".14" stroke="#60a5fa" stroke-opacity=".55" stroke-width=".7"/>
<path d="M114 33L127 23L151 26L172 40L171 54L157 60L150 74L139 67L134 52L120 47Z" fill="#60a5fa" fill-opacity=".14" stroke="#60a5fa" stroke-opacity=".55" stroke-width=".7"/>
<path d="M144 78L159 82L165 86L157 88Z" fill="#60a5fa" fill-opacity=".14" stroke="#60a5fa" stroke-opacity=".55" stroke-width=".7"/>
<path d="M153 98L170 94L181 104L172 114L156 110Z" fill="#60a5fa" fill-opacity=".14" stroke="#60a5fa" stroke-opacity=".55" stroke-width=".7"/>
</g></g>
<g><title>Portland to San Francisco</title>
<path d="M35.39 33.64 Q24.7 30.86 36.28 41.98" fill="none" stroke="#a78bfa" stroke-opacity=".2" stroke-width=".8"/>
<path class="route-motion" d="M35.39 33.64 Q24.7 30.86 36.28 41.98" pathLength="100" fill="none" stroke="#a78bfa" stroke-width="1.5" stroke-linecap="round" stroke-dasharray="1 32" style="animation-delay:-0s"/>
<circle cx="36.28" cy="41.98" r="2" fill="#101318" stroke="#60a5fa" stroke-width="1"/></g>
<g><title>Portland to New York</title>
<path d="M35.39 33.64 Q46.98 5.85 60.35 35.03" fill="none" stroke="#a78bfa" stroke-opacity=".2" stroke-width=".8"/>
<path class="route-motion" d="M35.39 33.64 Q46.98 5.85 60.35 35.03" pathLength="100" fill="none" stroke="#a78bfa" stroke-width="1.5" stroke-linecap="round" stroke-dasharray="1 32" style="animation-delay:-1.3s"/>
<circle cx="60.35" cy="35.03" r="2" fill="#101318" stroke="#60a5fa" stroke-width="1"/></g>
<g><title>Portland to Mexico City</title>
<path d="M35.39 33.64 Q30.04 57.27 47.87 57.27" fill="none" stroke="#a78bfa" stroke-opacity=".2" stroke-width=".8"/>
<path class="route-motion" d="M35.39 33.64 Q30.04 57.27 47.87 57.27" pathLength="100" fill="none" stroke="#a78bfa" stroke-width="1.5" stroke-linecap="round" stroke-dasharray="1 32" style="animation-delay:-2.6s"/>
<circle cx="47.87" cy="57.27" r="2" fill="#101318" stroke="#60a5fa" stroke-width="1"/></g>
<g><title>Portland to Sao Paulo</title>
<path d="M35.39 33.64 Q31.83 89.24 67.48 104.53" fill="none" stroke="#a78bfa" stroke-opacity=".2" stroke-width=".8"/>
<path class="route-motion" d="M35.39 33.64 Q31.83 89.24 67.48 104.53" pathLength="100" fill="none" stroke="#a78bfa" stroke-width="1.5" stroke-linecap="round" stroke-dasharray="1 32" style="animation-delay:-3.9s"/>
<circle cx="67.48" cy="104.53" r="2" fill="#101318" stroke="#60a5fa" stroke-width="1"/></g>
<g><title>Portland to London</title>
<path d="M35.39 33.64 Q67.48 -17.78 98.67 21.14" fill="none" stroke="#a78bfa" stroke-opacity=".2" stroke-width=".8"/>
<path class="route-motion" d="M35.39 33.64 Q67.48 -17.78 98.67 21.14" pathLength="100" fill="none" stroke="#a78bfa" stroke-width="1.5" stroke-linecap="round" stroke-dasharray="1 32" style="animation-delay:-5.2s"/>
<circle cx="98.67" cy="21.14" r="2" fill="#101318" stroke="#60a5fa" stroke-width="1"/></g>
<g><title>Portland to Paris</title>
<path d="M35.39 33.64 Q71.04 -9.44 102.24 29.47" fill="none" stroke="#a78bfa" stroke-opacity=".2" stroke-width=".8"/>
<path class="route-motion" d="M35.39 33.64 Q71.04 -9.44 102.24 29.47" pathLength="100" fill="none" stroke="#a78bfa" stroke-width="1.5" stroke-linecap="round" stroke-dasharray="1 32" style="animation-delay:-6.5s"/>
<circle cx="102.24" cy="29.47" r="2" fill="#101318" stroke="#60a5fa" stroke-width="1"/></g>
<g><title>Portland to Berlin</title>
<path d="M35.39 33.64 Q74.61 -21.95 109.37 22.53" fill="none" stroke="#a78bfa" stroke-opacity=".2" stroke-width=".8"/>
<path class="route-motion" d="M35.39 33.64 Q74.61 -21.95 109.37 22.53" pathLength="100" fill="none" stroke="#a78bfa" stroke-width="1.5" stroke-linecap="round" stroke-dasharray="1 32" style="animation-delay:-7.8s"/>
<circle cx="109.37" cy="22.53" r="2" fill="#101318" stroke="#60a5fa" stroke-width="1"/></g>
<g><title>Portland to Dubai</title>
<path d="M35.39 33.64 Q85.3 0.29 120.96 55.88" fill="none" stroke="#a78bfa" stroke-opacity=".2" stroke-width=".8"/>
<path class="route-motion" d="M35.39 33.64 Q85.3 0.29 120.96 55.88" pathLength="100" fill="none" stroke="#a78bfa" stroke-width="1.5" stroke-linecap="round" stroke-dasharray="1 32" style="animation-delay:-9.1s"/>
<circle cx="120.96" cy="55.88" r="2" fill="#101318" stroke="#60a5fa" stroke-width="1"/></g>
<g><title>Portland to Mumbai</title>
<path d="M35.39 33.64 Q91.54 7.24 131.65 67.0" fill="none" stroke="#a78bfa" stroke-opacity=".2" stroke-width=".8"/>
<path class="route-motion" d="M35.39 33.64 Q91.54 7.24 131.65 67.0" pathLength="100" fill="none" stroke="#a78bfa" stroke-width="1.5" stroke-linecap="round" stroke-dasharray="1 32" style="animation-delay:-10.4s"/>
<circle cx="131.65" cy="67.0" r="2" fill="#101318" stroke="#60a5fa" stroke-width="1"/></g>
<g><title>Portland to Singapore</title>
<path d="M35.39 33.64 Q103.13 12.8 144.13 83.68" fill="none" stroke="#a78bfa" stroke-opacity=".2" stroke-width=".8"/>
<path class="route-motion" d="M35.39 33.64 Q103.13 12.8 144.13 83.68" pathLength="100" fill="none" stroke="#a78bfa" stroke-width="1.5" stroke-linecap="round" stroke-dasharray="1 32" style="animation-delay:-11.7s"/>
<circle cx="144.13" cy="83.68" r="2" fill="#101318" stroke="#60a5fa" stroke-width="1"/></g>
<g><title>Portland to Tokyo</title>
<path d="M35.39 33.64 Q102.24 -30.29 162.85 41.98" fill="none" stroke="#a78bfa" stroke-opacity=".2" stroke-width=".8"/>
<path class="route-motion" d="M35.39 33.64 Q102.24 -30.29 162.85 41.98" pathLength="100" fill="none" stroke="#a78bfa" stroke-width="1.5" stroke-linecap="round" stroke-dasharray="1 32" style="animation-delay:-13s"/>
<circle cx="162.85" cy="41.98" r="2" fill="#101318" stroke="#60a5fa" stroke-width="1"/></g>
<g><title>Portland to Cape Town</title>
<path d="M35.39 33.64 Q76.39 44.76 107.59 111.47" fill="none" stroke="#a78bfa" stroke-opacity=".2" stroke-width=".8"/>
<path class="route-motion" d="M35.39 33.64 Q76.39 44.76 107.59 111.47" pathLength="100" fill="none" stroke="#a78bfa" stroke-width="1.5" stroke-linecap="round" stroke-dasharray="1 32" style="animation-delay:-14.3s"/>
<circle cx="107.59" cy="111.47" r="2" fill="#101318" stroke="#60a5fa" stroke-width="1"/></g>
<g><title>Portland to Sydney</title>
<path d="M35.39 33.64 Q110.26 33.64 157.5 112.86" fill="none" stroke="#a78bfa" stroke-opacity=".2" stroke-width=".8"/>
<path class="route-motion" d="M35.39 33.64 Q110.26 33.64 157.5 112.86" pathLength="100" fill="none" stroke="#a78bfa" stroke-width="1.5" stroke-linecap="round" stroke-dasharray="1 32" style="animation-delay:-15.6s"/>
<circle cx="157.5" cy="112.86" r="2" fill="#101318" stroke="#60a5fa" stroke-width="1"/></g>
<text x="55.0" y="51.71" font-size="6.5" fill="#a5afbf" font-weight="500" >New York</text>
<text x="93.33" y="5.85" font-size="6.5" fill="#a5afbf" font-weight="500" >London</text>
<text x="124.52" y="51.71" font-size="6.5" fill="#a5afbf" font-weight="500" >Dubai</text>
<text x="156.61" y="26.69" font-size="6.5" fill="#a5afbf" font-weight="500" >Tokyo</text>
<text x="130.76" y="100.36" font-size="6.5" fill="#a5afbf" font-weight="500" >Singapore</text>
<text x="85.3" y="137.88" font-size="6.5" fill="#a5afbf" font-weight="500" >Cape Town</text>
<text x="45.2" y="122.59" font-size="6.5" fill="#a5afbf" font-weight="500" >Sao Paulo</text>
<text x="153.04" y="142.05" font-size="6.5" fill="#a5afbf" font-weight="500" >Sydney</text>
<circle cx="35.39" cy="33.64" r="6" fill="#a78bfa" fill-opacity=".16"/>
<circle cx="35.39" cy="33.64" r="3" fill="#a78bfa"/>
<text x="14.39" y="22.64" font-size="8" fill="#f0f3f8" font-weight="600" >Portland</text>
</g>
</g>
</svg>
