<svg xmlns="http://www.w3.org/2000/svg" width="392" height="254" viewBox="0 0 392 254" role="img" aria-labelledby="title desc">
<title id="title">Languages across original public repositories</title>
<desc id="desc">PHP: 46 repositories; JavaScript: 18 repositories; HTML: 7 repositories; CSS: 3 repositories; Blade: 2 repositories; Objective-C: 2 repositories; Python: 2 repositories; Shell: 2 repositories; Vue: 2 repositories; C: 1 repositories; Ruby: 1 repositories; TypeScript: 1 repositories</desc>
<g font-family="system-ui, -apple-system, 'Segoe UI', sans-serif">
<rect x="1" y="1" width="390" height="252" rx="14" fill="#ffffff" stroke="#e5e7eb" />
<text x="24" y="35" font-size="10" fill="#526176" font-weight="600" letter-spacing="1.5">THE PUBLIC CODEBASE</text>
<text x="24" y="57" font-size="11" fill="#526176" font-weight="400" >87 repos with a detected language</text>
<rect x="24.0" y="76" width="181.885" height="11" rx="0" fill="#8b5cf6" stroke="none" />
<circle cx="28" cy="114" r="4" fill="#8b5cf6"/>
<text x="40" y="118" font-size="12" fill="#0f172a" font-weight="500" >PHP</text>
<text x="183" y="118" font-size="12" fill="#526176" font-weight="400" text-anchor="end">52.9%</text>
<rect x="205.885" y="76" width="71.172" height="11" rx="0" fill="#3b82f6" stroke="none" />
<circle cx="212" cy="114" r="4" fill="#3b82f6"/>
<text x="224" y="118" font-size="12" fill="#0f172a" font-weight="500" >JavaScript</text>
<text x="367" y="118" font-size="12" fill="#526176" font-weight="400" text-anchor="end">20.7%</text>
<rect x="277.057" y="76" width="27.678" height="11" rx="0" fill="#22c55e" stroke="none" />
<circle cx="28" cy="150" r="4" fill="#22c55e"/>
<text x="40" y="154" font-size="12" fill="#0f172a" font-weight="500" >HTML</text>
<text x="183" y="154" font-size="12" fill="#526176" font-weight="400" text-anchor="end">8.0%</text>
<rect x="304.736" y="76" width="11.862" height="11" rx="0" fill="#f59e0b" stroke="none" />
<circle cx="212" cy="150" r="4" fill="#f59e0b"/>
<text x="224" y="154" font-size="12" fill="#0f172a" font-weight="500" >CSS</text>
<text x="367" y="154" font-size="12" fill="#526176" font-weight="400" text-anchor="end">3.4%</text>
<rect x="316.598" y="76" width="7.908" height="11" rx="0" fill="#ec4899" stroke="none" />
<circle cx="28" cy="186" r="4" fill="#ec4899"/>
<text x="40" y="190" font-size="12" fill="#0f172a" font-weight="500" >Blade</text>
<text x="183" y="190" font-size="12" fill="#526176" font-weight="400" text-anchor="end">2.3%</text>
<rect x="324.506" y="76" width="43.494" height="11" rx="0" fill="#64748b" stroke="none" />
<circle cx="212" cy="186" r="4" fill="#64748b"/>
<text x="224" y="190" font-size="12" fill="#0f172a" font-weight="500" >Other</text>
<text x="367" y="190" font-size="12" fill="#526176" font-weight="400" text-anchor="end">12.6%</text>
<text x="24" y="224" font-size="10" fill="#526176" font-weight="400" >Primary language per original public repository.</text>
<text x="24" y="240" font-size="10" fill="#526176" font-weight="400" >A view of the code, not a skills rating.</text>
</g>
</svg>
